<svg xmlns="http://www.w3.org/2000/svg" xmlns:xlink="http://www.w3.org/1999/xlink" viewBox="0 0 99.3 99.3"><defs><style>.cls-1{isolation:isolate;}.cls-2{fill:#fff;}.cls-3,.cls-4,.cls-5,.cls-6{opacity:0.8;mix-blend-mode:multiply;}.cls-3{fill:url(#Degradado_sin_nombre_524);}.cls-4{fill:url(#Degradado_sin_nombre_500);}.cls-5{fill:url(#Degradado_sin_nombre_488);}.cls-6{fill:url(#Degradado_sin_nombre_479);}</style><radialGradient id="Degradado_sin_nombre_524" cx="302.5" cy="370.6" r="30.27" gradientTransform="matrix(0.87, -0.49, 0.49, 0.87, -377.64, -99.13)" gradientUnits="userSpaceOnUse"><stop offset="0.15" stop-color="#00532c"/><stop offset="0.27" stop-color="#08582a" stop-opacity="0.99"/><stop offset="0.44" stop-color="#1f6824" stop-opacity="0.95"/><stop offset="0.63" stop-color="#45811b" stop-opacity="0.88"/><stop offset="0.82" stop-color="#79a30e" stop-opacity="0.79"/><stop offset="1" stop-color="#b0c800" stop-opacity="0.7"/></radialGradient><radialGradient id="Degradado_sin_nombre_500" cx="300.58" cy="371.7" r="47.21" gradientTransform="translate(-377.19 -98.88) rotate(-29.35)" gradientUnits="userSpaceOnUse"><stop offset="0.27" stop-color="#00532c"/><stop offset="0.39" stop-color="#146129" stop-opacity="0.97"/><stop offset="0.64" stop-color="#478520" stop-opacity="0.91"/><stop offset="0.96" stop-color="#97be13" stop-opacity="0.8"/></radialGradient><radialGradient id="Degradado_sin_nombre_488" cx="293.98" cy="374.74" r="76.35" gradientTransform="matrix(0.85, -0.53, 0.53, 0.85, -380.62, -83.13)" gradientUnits="userSpaceOnUse"><stop offset="0.21" stop-color="#00532c"/><stop offset="0.3" stop-color="#12602a" stop-opacity="0.99"/><stop offset="0.49" stop-color="#3f8124" stop-opacity="0.95"/><stop offset="0.75" stop-color="#89b71a" stop-opacity="0.9"/><stop offset="0.75" stop-color="#8bb91a" stop-opacity="0.9"/></radialGradient><radialGradient id="Degradado_sin_nombre_479" cx="295.01" cy="384.17" r="82.29" gradientTransform="matrix(0.82, -0.57, 0.57, 0.82, -383.52, -65.7)" gradientUnits="userSpaceOnUse"><stop offset="0.21" stop-color="#00532c"/><stop offset="0.32" stop-color="#10612b"/><stop offset="0.53" stop-color="#398429"/><stop offset="0.75" stop-color="#6aaf26"/></radialGradient></defs><title>gn7-blue</title><g class="cls-1"><g id="Capa_1" data-name="Capa 1"><rect class="cls-2" x="-0.18" y="-1.07" width="101.37" height="101.37"/><path id="_Trazado_" data-name="&lt;Trazado&gt;" class="cls-3" d="M19.16,62.08a.31.31,0,0,1,.52-.29,16.47,16.47,0,0,0,12.47,4.75l18.09-.94a16.53,16.53,0,0,1,17,12.89.31.31,0,0,1-.52.29A16.46,16.46,0,0,0,54.25,74L36.16,75a16.54,16.54,0,0,1-17-12.89Z"/><path id="_Trazado_2" data-name="&lt;Trazado&gt;" class="cls-4" d="M17.08,39.88a.39.39,0,0,1,.74-.11A20.56,20.56,0,0,0,30.66,50.35l21.77,6.11a20.63,20.63,0,0,1,14.94,22,.39.39,0,0,1-.74.11A20.55,20.55,0,0,0,53.79,68L32,61.93a20.64,20.64,0,0,1-14.94-22Z"/><path id="_Trazado_3" data-name="&lt;Trazado&gt;" class="cls-5" d="M24.2,19.58a.45.45,0,0,1,.85.09A23.71,23.71,0,0,0,35.87,35.55L58,49.34a23.8,23.8,0,0,1,9.44,29.21.45.45,0,0,1-.85-.09A23.7,23.7,0,0,0,55.78,62.6L33.64,48.81A23.81,23.81,0,0,1,24.2,19.58Z"/><path id="_Trazado_4" data-name="&lt;Trazado&gt;" class="cls-6" d="M41,7.1a.47.47,0,0,1,.83.34,24.73,24.73,0,0,0,6.28,19L66.33,46.65a24.82,24.82,0,0,1,1.07,32,.47.47,0,0,1-.83-.34,24.73,24.73,0,0,0-6.28-19L42.06,39.12A24.84,24.84,0,0,1,41,7.1Z"/></g></g></svg>