<?xml version="1.0" encoding="utf-8"?>
<!-- Generator: Adobe Illustrator 18.0.0, SVG Export Plug-In . SVG Version: 6.00 Build 0)  -->
<!DOCTYPE svg PUBLIC "-//W3C//DTD SVG 1.1//EN" "http://www.w3.org/Graphics/SVG/1.1/DTD/svg11.dtd" [
	<!ENTITY ns_extend "http://ns.adobe.com/Extensibility/1.0/">
	<!ENTITY ns_ai "http://ns.adobe.com/AdobeIllustrator/10.0/">
	<!ENTITY ns_graphs "http://ns.adobe.com/Graphs/1.0/">
	<!ENTITY ns_vars "http://ns.adobe.com/Variables/1.0/">
	<!ENTITY ns_imrep "http://ns.adobe.com/ImageReplacement/1.0/">
	<!ENTITY ns_sfw "http://ns.adobe.com/SaveForWeb/1.0/">
	<!ENTITY ns_custom "http://ns.adobe.com/GenericCustomNamespace/1.0/">
	<!ENTITY ns_adobe_xpath "http://ns.adobe.com/XPath/1.0/">
]>
<svg version="1.1" id="Capa_1" xmlns:x="&ns_extend;" xmlns:i="&ns_ai;" xmlns:graph="&ns_graphs;"
	 xmlns="http://www.w3.org/2000/svg" xmlns:xlink="http://www.w3.org/1999/xlink" x="0px" y="0px" viewBox="0 0 163 163"
	 enable-background="new 0 0 163 163" xml:space="preserve">
<metadata>
	<sfw  xmlns="&ns_sfw;">
		<slices></slices>
		<sliceSourceBounds  height="146.8" width="147.7" x="407" y="-353.3" bottomLeftOrigin="true"></sliceSourceBounds>
	</sfw>
</metadata>
<g>
	<path fill="#FFFFFF" d="M114.6,132.1c-0.1-0.3-0.1-0.6-0.1-0.8c0-2.6,0-5.2,0-7.9c0-0.4,0.1-0.7,0.5-0.9c1.6-0.9,3.3-1.8,4.9-2.7
		c2.8-1.7,5.5-3.6,7.9-5.8c0.7-0.7,1.5-1.4,2.4-2.2c-2.9-1.6-5.9-2.8-9-3.8c-0.3,0.5-0.5,0.9-0.7,1.4c-0.8,1.8-1.6,3.7-2.5,5.5
		c-0.9,1.7-1.9,3.3-2.8,4.9c-0.1,0.2-0.2,0.3-0.4,0.6c-0.2-0.4-0.3-0.7-0.4-1c-0.2-1.9-0.8-3.7-1.8-5.4c-0.1-0.1-0.1-0.2-0.2-0.3
		c-0.9-0.7-0.7-1.5-0.2-2.4c0.8-1.6,1.5-3.3,2.3-5c0-0.1,0-0.2,0.1-0.3c-0.5-0.1-0.9-0.2-1.4-0.3c-1.4-0.3-2.8-0.6-4.2-0.9
		c-0.8-0.2-1.7-0.2-2.5-0.3c-1.1-0.1-2.2-0.3-3.3-0.5c-0.2,0-0.4-0.2-0.6-0.3c-2.1-2-4.1-4-6.2-6c-0.2-0.2-0.3-0.4-0.5-0.7
		c0.3-0.1,0.6-0.2,0.8-0.2c1.8,0.1,3.6,0.2,5.4,0.3c1.9,0.2,3.7,0.5,5.6,0.8c0.9,0.1,1.8,0.2,2.7,0.4c0.8,0.1,1.5,0.3,2.3,0.5
		c1.3,0.3,2.6,0.6,3.9,0.9c0.1-0.3,0.3-0.6,0.4-1c0.6-2.7,1.3-5.5,1.9-8.2c0.4-2,0.6-4.1,1-6.2c0.3-1.9,0.5-3.8,0.5-5.7
		c0-0.8,0.2-1.5,0.2-2.3c0-0.2,0-0.5-0.1-0.7c-8.7,0-17.3,0-26,0c0,0.4-0.1,0.7-0.1,1c0,5.8,0,11.7,0,17.5c0,0.4,0.1,0.8-0.5,1
		c-0.2-0.1-0.4-0.3-0.5-0.5c-0.8-0.7-1.5-1.5-2.3-2.2c-0.9-0.7-1.8-1.3-2.8-1.9c-0.5-0.3-0.6-0.6-0.6-1.2c0-4.3,0-8.6,0-12.9
		c0-0.3,0-0.5,0-0.9c-8.7,0-17.3,0-26,0c0,0.8,0,1.6,0,2.4c0,0.8,0.1,1.6,0.1,2.5c-0.1,0.1-0.4,0.2-0.6,0.2c-1.8,0-3.7,0-5.5,0
		c-0.1,0-0.2,0-0.4-0.1c-0.1-0.3-0.2-0.6-0.2-0.9c-0.1-1.1-0.2-2.3-0.2-3.4c0-0.6-0.3-0.8-0.8-0.8c-5.9,0-11.8,0-17.8,0
		c-0.7,0-0.8,0.2-0.7,0.8c0.1,1.2,0.3,2.3,0.4,3.5c0,0.2,0,0.5-0.1,0.7c-0.3,0-0.5,0.1-0.7,0.1c-2.4,0-4.8,0-7.3,0
		c-0.5,0-0.8-0.1-0.8-0.7c-0.2-2.4-0.4-4.9-0.5-7.4c0-2.1,0-4.2,0.2-6.3c0.2-1.9,0.5-3.7,0.9-5.5c0.3-1.5,0.5-3,0.9-4.5
		c0.9-3.4,2-6.7,3.5-9.9c1.1-2.3,2.2-4.6,3.4-6.8c1.2-2.1,2.7-4.1,4.2-6.1c2.2-3.1,4.9-5.9,7.6-8.5c1.2-1.2,2.6-2.3,3.9-3.3
		c1.4-1.1,2.9-2.2,4.4-3.2c1.1-0.7,2.2-1.3,3.4-2c1.4-0.8,2.7-1.5,4.1-2.2c2.9-1.4,6-2.6,9.1-3.5c1.8-0.5,3.5-1,5.3-1.4
		c1.4-0.3,2.8-0.5,4.2-0.7c1.4-0.2,2.7-0.4,4.1-0.5C88.5,8,91.2,8,94,8c0.8,0,1.6,0.1,2.4,0.1c3.1,0.3,6.2,0.6,9.2,1.5
		c2.5,0.7,5,1.4,7.4,2.2c1.6,0.5,3.2,1.3,4.8,1.9c3.5,1.5,6.7,3.4,9.8,5.6c2,1.4,3.9,3,5.7,4.5c1.6,1.4,3.1,2.8,4.6,4.4
		c1.5,1.7,3,3.4,4.3,5.2c1.3,1.7,2.5,3.4,3.6,5.2c1.1,1.8,2.1,3.6,2.9,5.5c1,2.2,2,4.4,2.8,6.7c1,2.7,1.8,5.4,2.3,8.3
		c0.7,3.8,1.4,7.7,1.3,11.6c0,1.3,0,2.6,0,3.9c0.1,2.3-0.2,4.6-0.5,6.8c-0.5,3.1-1.1,6.2-2,9.2c-0.7,2.2-1.6,4.5-2.5,6.6
		c-0.9,2.1-1.9,4.1-2.9,6.2c-0.4,0.8-0.8,1.5-1.3,2.2c-1.4,2.1-2.9,4.3-4.4,6.3c-2.1,2.9-4.6,5.5-7.3,7.9c-2.1,1.9-4.3,3.6-6.6,5.2
		c-2,1.4-4.1,2.6-6.2,3.8c-2,1.1-4,1.9-6.1,2.9C115.2,131.9,114.9,132,114.6,132.1z M116.6,44.9c-0.2,0-0.3,0.1-0.4,0.1
		c-1.5,0.3-2.9,0.8-4.4,1c-2.5,0.4-5,0.8-7.5,1.1c-3,0.4-6,0.7-9,0.7c-0.9,0-1,0.1-1,1c0,6.4,0,12.8,0,19.2c0,0.2,0,0.5,0.1,0.8
		c0.4,0.1,0.7,0.1,1.1,0.1c1.8,0,3.6,0,5.4,0c1.9,0,3.8-0.1,5.7-0.1c1.5,0,3,0.1,4.4,0.1c1.2,0,2.4-0.1,3.6-0.1
		c1.2,0,2.3,0.1,3.5,0.1c0.7,0,1.5-0.1,2.3-0.2c0-0.3,0.1-0.5,0.1-0.7c-0.1-0.7-0.2-1.4-0.2-2.2c0-2-0.1-3.9-0.5-5.8
		c-0.4-2-0.6-4.1-1-6.2c-0.5-2.4-1-4.8-1.6-7.2C117,46.2,116.8,45.6,116.6,44.9z M87.5,68.8c0-6.9,0-13.9,0-20.9
		c-7.6-0.2-15-1.2-22.3-3c-0.1,0.4-0.2,0.7-0.3,0.9c-0.4,1.3-0.7,2.7-1,4c-0.4,1.7-0.7,3.3-0.9,5c-0.4,2.4-0.8,4.8-1.1,7.2
		c-0.2,1.8-0.2,3.6-0.3,5.4c0,0.4,0,0.9-0.1,1.3C62,69,86.6,69,87.5,68.8z M134.8,106.4c0.3-0.5,0.7-1.1,1.1-1.6
		c2-2.5,3.5-5.2,4.9-8c1.1-2.2,1.9-4.6,2.8-6.9c0.4-1.1,0.8-2.2,1.1-3.3c0.4-1.6,0.7-3.2,1-4.8c0.2-1,0.3-2.1,0.4-3.2
		c0.1-0.4,0.1-0.8,0.2-1.2c0-0.6,0-1.2,0-1.8c-6.4,0-12.7,0-19.1,0c-0.1,0.5-0.2,0.9-0.3,1.3c-0.1,2.1-0.1,4.2-0.3,6.3
		c0,0.9-0.2,1.8-0.3,2.7c-0.3,1.7-0.5,3.3-0.8,5c-0.2,1.1-0.3,2.3-0.5,3.4c-0.4,1.9-0.9,3.7-1.4,5.6c-0.1,0.5-0.3,1-0.5,1.5
		C127,103.1,130.8,104.7,134.8,106.4z M123.1,43.1c0,0.1,0,0.4,0.1,0.6c0.4,1.6,0.9,3.3,1.3,4.9c0.3,1.3,0.5,2.6,0.7,3.8
		c0.2,1.2,0.5,2.5,0.7,3.7c0.1,0.7,0.2,1.5,0.3,2.2c0.1,1.2,0.3,2.4,0.4,3.6c0.1,2,0.2,3.9,0.3,5.9c0,0.2,0,0.4,0.1,0.5
		c0.2,0.2,0.4,0.5,0.6,0.5c0.6,0.1,1.2,0.1,1.7,0.1c1.9,0,3.8,0,5.7,0c0.3,0,0.6-0.1,0.9-0.1c0.5,0,1.1,0,1.6,0
		c1.2,0,2.4,0.1,3.6,0.1c0.8,0,1.7,0,2.5,0c0.8,0,1.7-0.1,2.5-0.1c0-0.3,0.1-0.5,0.1-0.6c-0.1-1.2-0.1-2.3-0.3-3.5
		c-0.3-1.8-0.8-3.5-1.1-5.3c-0.3-2-1-3.8-1.6-5.6c-0.3-1-0.8-2-1.2-3c-1-2.1-1.8-4.2-3-6.2c-1.1-2-2.5-3.8-3.7-5.7
		c-0.2-0.3-0.5-0.6-0.7-0.8C130.8,39.8,127.1,41.4,123.1,43.1z M58.6,43c-3.9-1.6-7.7-3.2-11.6-4.8c-4.1,5.2-7.2,11-9.2,17.4
		c-1.3,4.3-2.2,8.6-2.4,13.2c0.4,0.1,0.7,0.2,1.1,0.2c2.1,0,4.2,0,6.3,0c2,0,4.1-0.1,6.1-0.1c1.6,0,3.3,0.1,4.9,0.1
		c0.6,0,0.9-0.2,0.9-0.8c0.1-1.3,0.2-2.5,0.3-3.8c0.2-1.8,0.3-3.6,0.5-5.3c0.2-1.6,0.4-3.2,0.6-4.8c0.1-0.5,0.2-1,0.3-1.5
		c0.3-1.5,0.6-3.1,0.9-4.6c0.1-0.3,0.2-0.6,0.3-0.9c0.3-1.2,0.6-2.4,0.8-3.6C58.6,43.5,58.6,43.2,58.6,43z M87.5,41.2
		c0-8.2,0-16.3,0-24.3c-0.9,0-1.8,0-2.6,0c-0.1,0-0.2,0-0.3,0.1c-1,0.6-2.1,1-3,1.7c-1.2,0.8-2.3,1.8-3.4,2.8
		c-1.1,1-2.3,2.1-3.2,3.2c-1.4,1.9-2.8,3.9-4,6c-1.3,2.4-2.4,4.9-3.6,7.3c-0.1,0.2-0.1,0.4-0.1,0.6c0.8,0.2,1.6,0.3,2.3,0.5
		c1.2,0.3,2.5,0.6,3.7,0.8c1.4,0.2,2.9,0.4,4.3,0.5c2.2,0.2,4.5,0.4,6.7,0.6c0.8,0.1,1.5,0.1,2.3,0.2C87,41.2,87.2,41.2,87.5,41.2z
		 M94.3,16.8c0,8.2,0,16.2,0,24.4c0.3,0,0.5,0,0.8,0c0.9-0.1,1.7-0.1,2.6-0.2c1.4-0.1,2.7-0.2,4.1-0.3c0.1,0,0.2,0,0.2,0
		c1.4-0.2,2.8-0.4,4.1-0.6c0.8-0.1,1.7-0.1,2.5-0.3c1.5-0.3,2.9-0.6,4.4-0.9c0.5-0.1,0.9-0.2,1.5-0.3c-0.1-0.2-0.1-0.4-0.2-0.6
		c-0.6-1.4-1.2-2.9-1.9-4.2c-1-2-2.1-3.9-3.3-5.8c-1.1-1.8-2.4-3.5-3.9-5.1c-0.8-0.8-1.6-1.8-2.5-2.5c-1.4-1.1-2.9-1.9-4.4-2.9
		C97,16.6,95.7,16.9,94.3,16.8z M51.7,32.9c3,1.5,5.9,2.7,9.1,3.8C63,31.2,65.6,26,69,21.3C62.5,24,56.7,27.8,51.7,32.9z
		 M112.6,21.1c0,0.2,0,0.3,0.1,0.3c1,1.5,2.1,3,3.1,4.5c1.1,1.9,2.2,3.8,3.1,5.8c0.7,1.4,1.2,2.8,1.8,4.2c0.2,0.4,0.4,0.6,0.9,0.4
		c2.6-1,5.2-2.1,7.7-3.1c0.2-0.1,0.4-0.3,0.8-0.5C125,27.8,119.2,23.9,112.6,21.1z"/>
	<path fill="#FFFFFF" d="M108.4,126.9c0,0.3,0.1,0.6,0.1,0.8c0,3.4,0,6.8,0,10.1c0,2.5-2.3,5-4.9,4.9c-1.6,0-3.1,0-4.7,0
		c-0.2,0-0.5,0-0.7,0c-0.1-0.3-0.2-0.6-0.3-1c-0.4-2-1.3-3.9-2.6-5.4c-1.2-1.4-2.6-2.7-4.4-3.4c-1.1-0.4-2.1-0.9-3.2-1.1
		c-1.2-0.2-2.5-0.3-3.8-0.2c-2,0.2-3.8,0.7-5.5,1.7c-1,0.6-2,1.3-2.8,2.2c-0.9,1-1.7,1.9-2.2,3.1c-0.5,1-1,2.1-1.1,3.2
		c-0.1,0.8-0.4,0.9-1.1,0.9c-8.3,0-16.7,0-25,0c-0.2,0-0.4,0-0.7,0c-0.1-0.2-0.3-0.5-0.3-0.7c-0.1-1.2-0.6-2.2-1.1-3.3
		c-0.8-1.8-2.1-3.3-3.7-4.5c-0.9-0.6-1.8-1.3-2.8-1.7c-0.9-0.4-2-0.7-3-0.9c-1.4-0.2-2.8-0.3-4.2,0c-1.1,0.2-2.1,0.5-3.1,0.9
		c-0.9,0.4-1.8,1-2.6,1.5c-1.3,0.8-2.2,1.9-3.1,3.2c-1,1.3-1.6,2.8-1.9,4.4c-0.1,0.3-0.2,0.7-0.3,1c-0.3,0-0.5,0.1-0.7,0.1
		c-2.1,0-4.1,0-6.2,0c-2.3,0-4.6-2.2-4.6-4.5c0.1-3.5,0-7,0-10.6c0-0.2,0-0.5,0.1-0.8C41.2,126.9,74.7,126.9,108.4,126.9z"/>
	<path fill="#FFFFFF" d="M85,134.3c5.7,0,10.3,4.6,10.2,10.3c-0.1,5.8-4.4,10.2-10.3,10.2c-5.8,0-10.2-4.5-10.2-10.2
		C74.7,138.8,79.3,134.4,85,134.3z M85,149.4c3.1-0.1,4.8-2.4,4.8-4.8c0-2.7-2-4.8-4.8-4.9c-2.5-0.1-4.9,2.2-4.9,4.9
		C80.1,147.4,82.4,149.5,85,149.4z"/>
	<path fill="#FFFFFF" d="M32.1,134.3c5.9,0.1,10.2,4.6,10.2,10.2c0,5.5-4.2,10.2-10.2,10.2c-5.9,0.1-10.4-4.6-10.3-10.4
		C21.9,138.9,26.2,134.4,32.1,134.3z M36.9,144.6c0.3-2.5-2.6-4.9-4.7-4.9c-2.8,0-5,2.4-5,4.9c0.1,2.5,1.9,4.8,4.9,4.8
		C34.8,149.5,37.1,147.2,36.9,144.6z"/>
	<path fill="#FFFFFF" d="M108.4,124.3c-33.7,0-67.3,0-100.9,0c0-0.3-0.1-0.5-0.1-0.8c0-10.6,0-21.3,0-31.9c0-2.2,1.5-4,3.3-4.6
		c0.5-0.1,0.9-0.2,1.4-0.2c18.8,0,37.5,0,56.3,0c1.7,0,3.6,1.4,4.3,3c0.5,1.2,0.4,2.3,0.4,3.5c0,0.6,0,1.2,0,1.8
		c0.4,0,0.7,0.1,0.9,0.1c2.7,0,5.4,0,8,0c2.2,0,4.1,0.8,5.6,2.3c2.2,2.2,4.4,4.4,6.6,6.6c1.1,1.1,2.3,2.2,3.5,3.4
		c1.1,1.1,2.2,2.3,3.3,3.4c1.5,1.5,3.1,3,4.7,4.5c1.8,1.7,2.8,3.8,2.6,6.3C108.4,122.5,108.4,123.4,108.4,124.3z M21.1,104.8
		c1.9-0.1,2.2-0.1,3-0.6c1.9-1.1,3.5-2.6,4.8-4.4c1.3-1.7,1.9-3.5,1.9-5.6c0-2.8-2-4.5-4.8-4.3c-2.3,0.2-4.3,1.2-6.1,2.6
		C18.3,93.8,17,95.3,16,97c-1.4,2.5-2.5,5.2-2.5,8.1c0,1.3,0.4,2.6,1.3,3.6c1.2,1.2,2.6,1.7,4.3,1.7c1.5,0,2.9-0.4,4.2-1
		c1.7-0.7,3.2-1.7,4.6-2.9c0.8-0.6,1.5-1.3,2.2-2c0.2-0.2,0.3-0.7,0.1-0.9c-0.3-0.6-1.4-0.9-2-0.6c-1.1,0.6-2.1,1.3-3.2,2
		c-0.8,0.5-1.8,0.9-2.8,0.7C21.6,105.8,21.2,105.4,21.1,104.8z M98.3,116.4c0.3-0.6,0-0.9-0.3-1.1c-1.6-1.5-3.2-3.1-4.8-4.6
		c-1.7-1.6-3.4-3.2-5.1-4.8c-1.5-1.4-2.9-2.8-4.4-4.2c-0.4-0.3-0.9-0.5-1.4-0.6c-0.7-0.1-1.4,0-2,0c-1.2,0-1.6,0.4-1.6,1.6
		c0,4.2,0,8.3,0,12.5c0,1.3,0.2,1.5,1.5,1.5c5.7,0,11.4,0,17.2,0C97.8,116.6,98.1,116.5,98.3,116.4z M45.5,118.5
		c-0.9,0.3-1.5,0.8-2,1.6c-0.4,0.7,0.2,1.6,1,1.6c1-0.1,1.8-0.6,2.5-1.4c0.7-0.8,0.9-1.7,1.1-2.6c0.2-0.8,0.6-1.6-0.1-2.3
		c0-0.1,0.1-0.3,0.1-0.4c0.3-1,0-1.4-0.9-1.6c-0.9-0.2-1.7,0.2-2.4,0.6c-1.5,0.8-2.4,2-2.7,3.7c-0.1,0.5,0,1,0.5,1.2
		c0.4,0.1,0.9,0.2,1.3,0c0.5-0.2,0.9-0.6,1.4-0.9c0.3-0.2,0.5-0.3,0.9-0.5c0,1.2-0.3,2.2-0.9,3.2c-0.1,0-0.2,0-0.3-0.1
		C45.2,119.9,45.4,119.2,45.5,118.5z M55.5,115.8c0.7,0.2,1.5-0.4,1.6-1c0.1-0.7-0.4-1.5-1.1-1.6c-1.5-0.2-3.4,1.2-3.6,2.7
		c0,0.3,0.1,0.7,0.3,0.8c0.5,0.3,1,0.6,1.6,0.8c0.4,0.2,0.7,0.3,0.6,0.8c-0.1,0.5-0.3,0.8-1,0.9c0-0.5,0.1-0.9,0.1-1.6
		c-0.4,0.2-0.8,0.3-1.1,0.5c-0.4,0.2-0.7,0.6-0.6,1.1c0.1,0.5,0.5,0.7,0.9,0.8c1.1,0.3,2.9-0.5,3.6-1.6c0.7-1.1,0.4-1.7-0.8-2
		c-0.3-0.1-0.6-0.2-0.9-0.3c-0.2-0.1-0.4-0.2-0.5-0.3c-0.3-0.6,0.2-1.5,0.9-1.8c0,0.3,0.1,0.6,0.1,0.9
		C55.5,115.2,55.5,115.5,55.5,115.8z M33,117.7c-0.1,0-0.1-0.1-0.2-0.1c0.8-2.1,1.6-4.3,2.4-6.4c-0.7-0.8-2-0.7-2.4,0.2
		c-1.1,2.1-1.5,4.4-1.9,6.6c0,0.3,0.1,0.5,0.1,0.8c0.2,0.1,0.4,0.2,0.6,0.2c0.6,0,1.2,0,1.9,0c0.8,0,1.6-0.8,1.6-1.6
		C34.3,117.5,33.6,117.6,33,117.7z M40.3,113.2c0-0.1,0-0.1,0-0.2c-0.3,0-0.7-0.2-1-0.1c-1.9,0.3-3.4,1.7-3.8,3.6
		c-0.1,0.8,0.3,1.6,1,2c1.7,0.9,3.7,0.5,4.7-1.1c0.6-1,0.9-2.7-0.6-3.6c-0.5,0.1-1,0.3-1.7,0.5c0.3,0.3,0.4,0.5,0.6,0.7
		c0.6,0.7,0.7,1.4,0.3,2.2c-0.2,0.4-0.5,0.8-1.1,0.8c-0.5-0.1-0.9-0.4-1-0.9c0-0.6,0-1.2,0.2-1.8c0.3-0.9,0.9-1.7,2-1.8
		C40,113.4,40.2,113.3,40.3,113.2z M58.3,114.9c-0.1,0.3-0.2,0.7-0.3,1.1c-0.1,0.4-0.2,0.7-0.2,1.1c-0.1,0.8,0.3,1.5,1,1.7
		c0.7,0.2,1.7-0.2,2-0.9c-1.1-0.4-1-1.2-0.8-2.1c0-0.1,0-0.2,0-0.2c0-0.5,0.2-0.8,0.7-1c0.5-0.1,0.7-0.5,0.6-1
		c-0.2-0.2-0.4-0.3-0.6-0.5c0.2-0.7,0.4-1.3,0.6-1.9c-0.7-0.4-1.4-0.1-1.7,0.5c-0.4,0.7-0.6,1.5-1.3,2c-0.2,0.1-0.3,0.5-0.4,0.8
		C58,114.5,58.1,114.7,58.3,114.9z M67.9,115.5c0.6,0.1,0.9-0.2,1.2-0.6c0.3-0.5,0.3-1.1,0-1.5c-0.4-0.4-0.8-0.4-1.2-0.2
		c-1.6,0.8-2.4,2.1-2.7,3.8c-0.2,1.2,0.6,2.1,1.7,2c1-0.1,2-0.8,2.2-1.9c0-0.1,0-0.2,0-0.5c-0.3,0.2-0.6,0.4-0.8,0.6
		c-0.3,0.1-0.6,0.2-0.9,0.3c-0.5-1-0.1-2.8,0.8-3.4C68,114.7,68,115.1,67.9,115.5z M49.1,117.4c0,0.1,0,0.2,0,0.3
		c0,0.6,0.3,1.2,0.7,1.3c0.7,0.1,0.8-0.4,1-0.9c0.2-0.6,0.4-1.3,0.5-1.9c0.1-0.8,0.1-1.5,0.1-2.3c0-0.2-0.4-0.5-0.6-0.5
		c-0.2,0-0.6,0.2-0.7,0.4C49.5,114.9,49.1,116.1,49.1,117.4z M62,117.4c0,0.2,0,0.4,0,0.6c0,0.5,0.3,0.8,0.8,0.9
		c0.5,0.1,0.6-0.2,0.8-0.6c0.1-0.4,0.3-0.8,0.4-1.2c0.2-1,0.3-2.1,0.4-3.1c0-0.2-0.4-0.6-0.6-0.7c-0.2-0.1-0.6,0.2-0.8,0.5
		C62.3,114.9,62,116.1,62,117.4z M50.3,112.9c0.6,0,1-0.1,1.1-0.5c0.2-0.5,0.4-1,0-1.6c-0.3,0-0.5,0-0.8,0
		C50.4,111.4,49.8,112,50.3,112.9z M63.1,112.7c0.3,0.3,0.7,0.3,1-0.1c0.5-0.5,0.6-1.3,0.3-1.9c-0.2,0-0.5,0-0.7,0
		C63.2,111.2,63,111.9,63.1,112.7z"/>
	<path fill="#FFFFFF" d="M20.9,103.9c0-0.7-0.1-1.2-0.1-1.6c0.3-3,1.4-5.8,2.9-8.4c0.2-0.4,0.5-0.9,1.2-0.9c0.1,0.3,0.2,0.7,0.2,1
		c0.1,1.6-0.3,3.1-0.7,4.7c-0.3,0.9-0.6,1.8-1.1,2.6c-0.5,0.8-1.2,1.6-1.8,2.3C21.4,103.7,21.2,103.7,20.9,103.9z"/>
	<path fill="#FFFFFF" d="M44.9,117.4c-0.6-0.9,0.4-3,1.6-3.3c0.2,0.6-0.2,1.2-0.4,1.7c0.1,0.1,0.2,0.2,0.3,0.4
		C45.8,116.6,45.4,117,44.9,117.4z"/>
</g>
</svg>
