<?xml version="1.0" encoding="utf-8"?>
<!-- Generator: Adobe Illustrator 18.0.0, SVG Export Plug-In . SVG Version: 6.00 Build 0)  -->
<!DOCTYPE svg PUBLIC "-//W3C//DTD SVG 1.1//EN" "http://www.w3.org/Graphics/SVG/1.1/DTD/svg11.dtd" [
	<!ENTITY ns_extend "http://ns.adobe.com/Extensibility/1.0/">
	<!ENTITY ns_ai "http://ns.adobe.com/AdobeIllustrator/10.0/">
	<!ENTITY ns_graphs "http://ns.adobe.com/Graphs/1.0/">
	<!ENTITY ns_vars "http://ns.adobe.com/Variables/1.0/">
	<!ENTITY ns_imrep "http://ns.adobe.com/ImageReplacement/1.0/">
	<!ENTITY ns_sfw "http://ns.adobe.com/SaveForWeb/1.0/">
	<!ENTITY ns_custom "http://ns.adobe.com/GenericCustomNamespace/1.0/">
	<!ENTITY ns_adobe_xpath "http://ns.adobe.com/XPath/1.0/">
]>
<svg version="1.1" id="Capa_1" xmlns:x="&ns_extend;" xmlns:i="&ns_ai;" xmlns:graph="&ns_graphs;"
	 xmlns="http://www.w3.org/2000/svg" xmlns:xlink="http://www.w3.org/1999/xlink" x="0px" y="0px" viewBox="0 0 21.6 25.1"
	 enable-background="new 0 0 21.6 25.1" xml:space="preserve">
<metadata>
	<sfw  xmlns="&ns_sfw;">
		<slices></slices>
		<sliceSourceBounds  height="64.6" width="158.2" y="-459.6" x="468.3" bottomLeftOrigin="true"></sliceSourceBounds>
	</sfw>
</metadata>
<g>
	<path fill="#FFFFFF" d="M160.3,10.4l2.1-2.9V4.2L148.1-5.9h-3l16.9,12l-2.6,3.7L137.2-5.9h-8.6l-11.4,16.2l-4.7-3.3l9.1-12.8h-2.2
		l-8.3,11.8l-4.2-3v1.7l9.8,6.9l-3.4,4.8l-6.4-4.5v1.8l5,3.6l-3.4,4.8l-1.7-1.2v2l0.6,0.5l-0.6,0.9v11.3l7.6-10.7l4,2.8l-9,12.8
		l-2.5-1.8v6.8l12.1,8.6l-2.5,3.5l-9.6-6.8V56l1.8-2.5l7.3,5.2h3l-1.3-1l2.5-3.5l6.3,4.5h8.2L116.6,46l3.4-4.8l24.5,17.4h2.9
		l-1.9-1.3l3.2-4.5l8.2,5.8h3.3l-4-2.8l6.3-8.8v-3l-7.5,10.6l-4.9-3.5l8.8-12.4l3.7,2.6v-2.6l-1.8-1.3l1.8-2.6v-3.6l-3.2,4.5L154,32
		l8.4-11.8v-8.4L160.3,10.4z M156.1,14.1l-3.4,4.8l-14.1-10l3.4-4.8L156.1,14.1z M143.2,14.8l8.4,5.9l-4.5,6.4l-8.4-5.9L143.2,14.8z
		 M132.8,27.2l-5.2-3.7l9.6-13.5l5.2,3.7L132.8,27.2z M133.6-1.6l6.9,4.9L127.3,22l-6.9-4.9L133.6-1.6z M115.1,23.7l3.4-4.8
		L139.8,34l-3.4,4.8L115.1,23.7z M115.5,45.3l-5.5-3.9l9-12.8l5.5,3.9L115.5,45.3z M121,40l4.6-6.5l9.7,6.9l-4.6,6.5L121,40z
		 M132.3,47.8l8.8-12.4l5.7,4.1L138,51.8L132.3,47.8z M144.5,56.7l-5.7-4.1l8.8-12.4l5.7,4.1L144.5,56.7z M157,37.6l-3.4,4.8
		L133.4,28l3.4-4.8L157,37.6z M152.5,31.8l-5.2-3.7l9.6-13.5l5.2,3.7L152.5,31.8z"/>
	<polygon fill="#FFFFFF" points="106.8,58.6 108.4,58.6 106.8,57.5 	"/>
	<polygon fill="#FFFFFF" points="106.8,-5.9 106.8,-1.7 109.9,-5.9 	"/>
	
		<rect x="126.2" y="-1.3" transform="matrix(0.8159 0.5782 -0.5782 0.8159 29.93 -73.5485)" fill="#EAE9EA" width="8.5" height="23"/>
	<polygon fill="#EAE9EA" points="118.4,27.4 114.4,24.6 106.8,35.3 106.8,38.4 109.3,40.2 	"/>
	<polygon fill="#EAE9EA" points="117.2,10.2 128.6,-5.9 121.6,-5.9 112.5,6.9 	"/>
	<polygon fill="#EAE9EA" points="119.4,-5.9 109.9,-5.9 106.8,-1.7 106.8,2.8 111.1,5.8 	"/>
	
		<rect x="109.4" y="33.6" transform="matrix(0.5782 -0.8159 0.8159 0.5782 19.2885 111.2558)" fill="#EAE9EA" width="15.6" height="6.7"/>
	
		<rect x="131.9" y="10.4" transform="matrix(-0.8159 -0.5782 0.5782 -0.8159 234.4512 111.9351)" fill="#EAE9EA" width="6.3" height="16.6"/>
	
		<rect x="146.5" y="20.1" transform="matrix(0.5782 -0.8159 0.8159 0.5782 46.3103 136.0719)" fill="#F1F0F0" width="16.6" height="6.3"/>
	<polygon fill="#EAE9EA" points="159.2,35.7 162.4,31.2 162.4,20.2 154,32 	"/>
	<polygon fill="#F1F0F0" points="162.4,38.6 162.4,34.8 160.6,37.3 	"/>
	
		<rect x="140" y="17" transform="matrix(0.8159 0.5782 -0.5782 0.8159 38.8196 -80.0319)" fill="#D7D6D7" width="10.2" height="7.8"/>
	
		<rect x="124.1" y="34.3" transform="matrix(0.5782 -0.8159 0.8159 0.5782 21.2306 121.481)" fill="#D7D6D7" width="8" height="11.9"/>
	<polygon fill="#EAE9EA" points="116.6,46 134.4,58.6 144.5,58.6 120,41.3 	"/>
	<polygon fill="#EAE9EA" points="116.6,11.5 106.8,4.5 106.8,11.7 113.2,16.2 	"/>
	<polygon fill="#EAE9EA" points="111.9,17.1 106.8,13.5 106.8,20.6 108.5,21.8 	"/>
	<polygon fill="#EAE9EA" points="106.8,22.6 106.8,24 107.5,23.1 	"/>
	
		<rect x="114.3" y="25.9" transform="matrix(0.8159 0.5782 -0.5782 0.8159 40.1419 -68.3655)" fill="#EAE9EA" width="26.2" height="5.8"/>
	
		<rect x="144.5" y="2.9" transform="matrix(-0.5782 0.8159 -0.8159 -0.5782 242.013 -102.0693)" fill="#EAE9EA" width="5.8" height="17.3"/>
	<polygon fill="#EAE9EA" points="162,6.1 145.1,-5.9 137.2,-5.9 159.4,9.8 	"/>
	<polygon fill="#EAE9EA" points="162.4,11.9 162.4,7.5 160.3,10.4 	"/>
	<polygon fill="#D7D6D7" points="162.4,-5.9 148.1,-5.9 162.4,4.2 	"/>
	
		<rect x="132.8" y="29.9" transform="matrix(-0.8159 -0.5782 0.5782 -0.8159 244.6291 143.4846)" fill="#EAE9EA" width="24.8" height="5.8"/>
	
		<rect x="131.9" y="40.1" transform="matrix(0.5782 -0.8159 0.8159 0.5782 23.283 132.2179)" fill="#EAE9EA" width="15.2" height="7"/>
	
		<rect x="142.5" y="40.8" transform="matrix(-0.8159 -0.5782 0.5782 -0.8159 237.1491 172.3843)" fill="#EAE9EA" width="7" height="15.2"/>
	<polygon fill="#EAE9EA" points="149.9,51.1 154.9,54.6 162.4,43.9 162.4,41.2 158.7,38.6 	"/>
	<polygon fill="#EAE9EA" points="145.6,57.3 147.4,58.6 156.9,58.6 148.7,52.9 	"/>
	<polygon fill="#D7D6D7" points="160.1,58.6 162.4,58.6 162.4,46.9 156.1,55.8 	"/>
	<polygon fill="#EAE9EA" points="117.5,57.7 118.8,58.6 126.3,58.6 120,54.2 	"/>
	<polygon fill="#EAE9EA" points="118.9,53.8 106.8,45.2 106.8,50.5 116.4,57.3 	"/>
	<polygon fill="#D7D6D7" points="106.8,56 106.8,57.5 108.4,58.6 115.9,58.6 108.6,53.5 	"/>
</g>
<g>
	<g>
		<path fill="#CECECE" d="M14.1,9.2c0,1.8-1.5,3.3-3.3,3.3s-3.3-1.5-3.3-3.3S9,5.9,10.8,5.9S14.1,7.4,14.1,9.2z"/>
		<path fill="#CECECE" d="M4.2,18.1c0-2.2,4.4-3.4,6.6-3.4s6.6,1.2,6.6,3.4v1.1H4.2V18.1z"/>
	</g>
</g>
</svg>
