<?xml version="1.0" encoding="utf-8"?>
<!-- Generator: Adobe Illustrator 18.0.0, SVG Export Plug-In . SVG Version: 6.00 Build 0)  -->
<!DOCTYPE svg PUBLIC "-//W3C//DTD SVG 1.1//EN" "http://www.w3.org/Graphics/SVG/1.1/DTD/svg11.dtd" [
	<!ENTITY ns_extend "http://ns.adobe.com/Extensibility/1.0/">
	<!ENTITY ns_ai "http://ns.adobe.com/AdobeIllustrator/10.0/">
	<!ENTITY ns_graphs "http://ns.adobe.com/Graphs/1.0/">
	<!ENTITY ns_vars "http://ns.adobe.com/Variables/1.0/">
	<!ENTITY ns_imrep "http://ns.adobe.com/ImageReplacement/1.0/">
	<!ENTITY ns_sfw "http://ns.adobe.com/SaveForWeb/1.0/">
	<!ENTITY ns_custom "http://ns.adobe.com/GenericCustomNamespace/1.0/">
	<!ENTITY ns_adobe_xpath "http://ns.adobe.com/XPath/1.0/">
]>
<svg version="1.1" id="Capa_1" xmlns:x="&ns_extend;" xmlns:i="&ns_ai;" xmlns:graph="&ns_graphs;"
	 xmlns="http://www.w3.org/2000/svg" xmlns:xlink="http://www.w3.org/1999/xlink" x="0px" y="0px" viewBox="0 0 595.3 841.9"
	 enable-background="new 0 0 595.3 841.9" xml:space="preserve">
<metadata>
	<sfw  xmlns="&ns_sfw;">
		<slices></slices>
		<sliceSourceBounds  height="1780.3" width="4346.4" y="-850.9" x="134.7" bottomLeftOrigin="true"></sliceSourceBounds>
	</sfw>
</metadata>
<g>
	<path fill="#FFFFFF" d="M4417.7,361.7l57.9-79.9v-90.9L4081.5-87.5h-82.7l465.8,330.7l-71.7,102L3781.1-87.5h-237l-314.2,446.5
		L3100.4,268l250.8-352.8h-60.6l-228.7,325.2l-115.7-82.7v46.9l270.1,190.2L3122.5,527l-176.4-124v49.6l137.8,99.2l-93.7,132.3
		l-46.9-33.1v55.1l16.5,13.8l-16.5,24.8v311.4l209.5-294.9l110.2,77.2l-248,352.8l-68.9-49.6V1329l333.5,237l-68.9,96.5
		l-264.6-187.4v143.3l49.6-68.9l201.2,143.3h82.7l-35.8-27.6l68.9-96.5l173.6,124h226l-498.8-350l93.7-132.3l675.2,479.5h79.9
		l-52.4-35.8l88.2-124l226,159.8h90.9l-110.2-77.2l173.6-242.5v-82.7l-206.7,292.1l-135-96.5l242.5-341.7l102,71.7v-71.7l-49.6-35.8
		l49.6-71.7v-99.2l-88.2,124l-148.8-102l231.5-325.2V400.3L4417.7,361.7z M4302,463.7l-93.7,132.3l-388.6-275.6l93.7-132.3
		L4302,463.7z M3946.5,483L4178,645.6l-124,176.4l-231.5-162.6L3946.5,483z M3659.9,824.7l-143.3-102l264.6-372l143.3,102
		L3659.9,824.7z M3681.9,31l190.2,135l-363.8,515.4l-190.2-135L3681.9,31z M3172.1,728.2l93.7-132.3l587,416.1l-93.7,132.3
		L3172.1,728.2z M3183.1,1323.5L3031.5,1216l248-352.8l151.6,107.5L3183.1,1323.5z M3334.7,1177.4l126.8-179.1l267.3,190.2
		L3602,1367.6L3334.7,1177.4z M3646.1,1392.4l242.5-341.7l157.1,113l-242.5,339L3646.1,1392.4z M3982.3,1637.7l-157.1-113
		l242.5-341.7l157.1,113L3982.3,1637.7z M4326.8,1111.3l-93.7,132.3l-556.7-396.9l93.7-132.3L4326.8,1111.3z M4202.8,951.5
		l-143.3-102L4324,477.4l143.3,102L4202.8,951.5z"/>
	<polygon fill="#FFFFFF" points="2943.3,1690 2987.4,1690 2943.3,1659.7 	"/>
	<polygon fill="#FFFFFF" points="2943.3,-87.5 2943.3,28.2 3028.8,-87.5 	"/>
	
		<rect x="3478.4" y="39.2" transform="matrix(-0.8159 -0.5782 0.5782 -0.8159 6323.2261 2725.7256)" fill="#EAE9EA" width="234.3" height="633.9"/>
	<polygon fill="#EAE9EA" points="3263,830.2 3152.8,753 2943.3,1047.9 2943.3,1133.4 3012.2,1183 	"/>
	<polygon fill="#EAE9EA" points="3229.9,356.2 3544.1,-87.5 3351.2,-87.5 3100.4,265.2 	"/>
	<polygon fill="#EAE9EA" points="3290.6,-87.5 3028.8,-87.5 2943.3,28.2 2943.3,152.2 3061.8,234.9 	"/>
	
		<rect x="3015" y="1002.4" transform="matrix(-0.5782 0.8159 -0.8159 -0.5782 5990.6836 -907.7024)" fill="#EAE9EA" width="429.9" height="184.6"/>
	
		<rect x="3635.8" y="358.7" transform="matrix(0.8159 0.5782 -0.5782 0.8159 1025.0077 -2044.2471)" fill="#EAE9EA" width="173.6" height="457.5"/>
	
		<rect x="4037" y="628" transform="matrix(-0.5782 0.8159 -0.8159 -0.5782 7315.4536 -2352.2849)" fill="#F1F0F0" width="457.5" height="173.6"/>
	<polygon fill="#EAE9EA" points="4387.4,1058.9 4475.6,934.9 4475.6,631.8 4244.1,957 	"/>
	<polygon fill="#F1F0F0" points="4475.6,1138.9 4475.6,1034.1 4426,1103 	"/>
	
		<rect x="3858.9" y="544.1" transform="matrix(-0.8159 -0.5782 0.5782 -0.8159 6885.8936 3495.6091)" fill="#D7D6D7" width="281.1" height="215"/>
	
		<rect x="3421.2" y="1020" transform="matrix(-0.5782 0.8159 -0.8159 -0.5782 6539.2271 -1012.707)" fill="#D7D6D7" width="220.5" height="328"/>
	<polygon fill="#EAE9EA" points="3213.4,1342.8 3704,1690 3982.3,1690 3307.1,1213.3 	"/>
	<polygon fill="#EAE9EA" points="3213.4,392 2943.3,199.1 2943.3,397.5 3119.7,521.5 	"/>
	<polygon fill="#EAE9EA" points="3083.9,546.3 2943.3,447.1 2943.3,642.8 2990.2,675.9 	"/>
	<polygon fill="#EAE9EA" points="2943.3,697.9 2943.3,736.5 2962.6,711.7 	"/>
	
		<rect x="3151" y="788.7" transform="matrix(-0.8159 -0.5782 0.5782 -0.8159 5875.2251 3608.0198)" fill="#EAE9EA" width="722.1" height="159.8"/>
	
		<rect x="3981.3" y="154.1" transform="matrix(0.5782 -0.8159 0.8159 0.5782 1392.8252 3479.0625)" fill="#EAE9EA" width="159.8" height="476.8"/>
	<polygon fill="#EAE9EA" points="4464.6,243.2 3998.8,-87.5 3781.1,-87.5 4392.9,345.2 	"/>
	<polygon fill="#EAE9EA" points="4475.6,403 4475.6,281.8 4417.7,361.7 	"/>
	<polygon fill="#D7D6D7" points="4475.6,-87.5 4081.5,-87.5 4475.6,190.8 	"/>
	
		<rect x="3657.8" y="898.2" transform="matrix(0.8159 0.5782 -0.5782 0.8159 1301.894 -2132.4485)" fill="#EAE9EA" width="683.5" height="159.8"/>
	
		<rect x="3635.5" y="1180.5" transform="matrix(-0.5782 0.8159 -0.8159 -0.5782 7109.8989 -1121.8397)" fill="#EAE9EA" width="418.9" height="192.9"/>
	
		<rect x="3927.5" y="1201.6" transform="matrix(0.8159 0.5782 -0.5782 0.8159 1556.7151 -2066.8816)" fill="#EAE9EA" width="192.9" height="418.9"/>
	<polygon fill="#EAE9EA" points="4131.1,1483.4 4268.9,1579.8 4475.6,1284.9 4475.6,1210.5 4373.7,1138.9 	"/>
	<polygon fill="#EAE9EA" points="4012.6,1654.2 4062.2,1690 4324,1690 4098.1,1533 	"/>
	<polygon fill="#D7D6D7" points="4412.2,1690 4475.6,1690 4475.6,1367.6 4302,1612.9 	"/>
	<polygon fill="#EAE9EA" points="3238.2,1665.2 3274,1690 3480.7,1690 3307.1,1568.8 	"/>
	<polygon fill="#EAE9EA" points="3276.8,1557.8 2943.3,1320.8 2943.3,1466.8 3207.9,1654.2 	"/>
	<polygon fill="#D7D6D7" points="2943.3,1618.4 2943.3,1659.7 2987.4,1690 3194.1,1690 2992.9,1549.5 	"/>
</g>
<path fill="#CECECE" d="M297.6,186.8c-90.8,0-162.9,72.1-162.9,162.9c0,123.3,162.9,302.6,162.9,302.6s162.9-181.5,162.9-302.6
	C460.6,261.3,388.4,186.8,297.6,186.8z M297.6,407.9c-32.6,0-58.2-25.6-58.2-58.2s25.6-58.2,58.2-58.2s58.2,25.6,58.2,58.2
	S330.2,407.9,297.6,407.9z"/>
</svg>
