<?xml version="1.0" encoding="utf-8"?>
<!-- Generator: Adobe Illustrator 18.0.0, SVG Export Plug-In . SVG Version: 6.00 Build 0)  -->
<!DOCTYPE svg PUBLIC "-//W3C//DTD SVG 1.1//EN" "http://www.w3.org/Graphics/SVG/1.1/DTD/svg11.dtd" [
	<!ENTITY ns_extend "http://ns.adobe.com/Extensibility/1.0/">
	<!ENTITY ns_ai "http://ns.adobe.com/AdobeIllustrator/10.0/">
	<!ENTITY ns_graphs "http://ns.adobe.com/Graphs/1.0/">
	<!ENTITY ns_vars "http://ns.adobe.com/Variables/1.0/">
	<!ENTITY ns_imrep "http://ns.adobe.com/ImageReplacement/1.0/">
	<!ENTITY ns_sfw "http://ns.adobe.com/SaveForWeb/1.0/">
	<!ENTITY ns_custom "http://ns.adobe.com/GenericCustomNamespace/1.0/">
	<!ENTITY ns_adobe_xpath "http://ns.adobe.com/XPath/1.0/">
]>
<svg version="1.1" id="Capa_1" xmlns:x="&ns_extend;" xmlns:i="&ns_ai;" xmlns:graph="&ns_graphs;"
	 xmlns="http://www.w3.org/2000/svg" xmlns:xlink="http://www.w3.org/1999/xlink" x="0px" y="0px" viewBox="0 0 99.3 99.3"
	 enable-background="new 0 0 99.3 99.3" xml:space="preserve">
<metadata>
	<sfw  xmlns="&ns_sfw;">
		<slices></slices>
		<sliceSourceBounds  height="73.7" width="89.2" x="434.8" y="-323.5" bottomLeftOrigin="true"></sliceSourceBounds>
	</sfw>
</metadata>
<g>
	<polygon fill="#FFFFFF" points="48,38.6 48,28.4 45.2,35.8 	"/>
	<polygon fill="#FFFFFF" points="47.9,19.3 47.8,19 28.4,19 42.7,33.2 	"/>
	<polygon fill="#FFFFFF" points="51.3,28.4 51.3,41.9 82.1,72.7 84.3,71.8 84.3,44.1 59.1,49.2 	"/>
	<polygon fill="#FFFFFF" points="84.3,19 51.5,19 51.3,19 51.4,19.3 61.2,45.4 84.3,40.8 94.2,38.8 	"/>
	<polygon fill="#FFFFFF" points="75.5,75.3 51.3,51.2 48,47.9 48,47.9 42.7,42.6 42.7,42.6 40.1,40 19.1,19 12.9,12.8 12.9,12.8 
		8.3,17.5 13.2,22.5 5.1,38.8 15,40.8 35.6,44.9 39.8,49.1 15,44.1 15,71.8 48,85 48,57.3 51.3,60.6 51.3,85 68.8,78 77.3,86.5 
		81.9,81.8 81.9,81.8 	"/>
</g>
</svg>
